<svg width="30" height="31" viewBox="0 0 30 31" fill="none" xmlns="http://www.w3.org/2000/svg">
<path d="M14.9111 2.8606C8.10586 2.8606 2.56934 8.39712 2.56934 15.2024V20.3156C2.56934 21.5794 3.67639 22.6074 5.03769 22.6074H6.27187C6.59919 22.6074 6.91311 22.4774 7.14456 22.246C7.37602 22.0145 7.50605 21.7006 7.50605 21.3733V15.0259C7.50605 14.6986 7.37602 14.3846 7.14456 14.1532C6.91311 13.9217 6.59919 13.7917 6.27187 13.7917H5.15123C5.83744 9.01544 9.94725 5.32895 14.9111 5.32895C19.875 5.32895 23.9848 9.01544 24.671 13.7917H23.5504C23.223 13.7917 22.9091 13.9217 22.6777 14.1532C22.4462 14.3846 22.3162 14.6986 22.3162 15.0259V22.6074C22.3162 23.9687 21.2091 25.0758 19.8478 25.0758H17.3795V23.8416H12.4428V27.5441H19.8478C22.5704 27.5441 24.7845 25.33 24.7845 22.6074C26.1458 22.6074 27.2529 21.5794 27.2529 20.3156V15.2024C27.2529 8.39712 21.7164 2.8606 14.9111 2.8606Z" fill="white"/>
</svg>
