<svg width="30" height="30" viewBox="0 0 30 30" fill="none" xmlns="http://www.w3.org/2000/svg">
<path d="M14.9111 2.62646C8.10586 2.62646 2.56934 8.16298 2.56934 14.9682V20.0814C2.56934 21.3452 3.67639 22.3733 5.03769 22.3733H6.27187C6.59919 22.3733 6.91311 22.2433 7.14456 22.0118C7.37602 21.7804 7.50605 21.4664 7.50605 21.1391V14.7918C7.50605 14.4644 7.37602 14.1505 7.14456 13.9191C6.91311 13.6876 6.59919 13.5576 6.27187 13.5576H5.15123C5.83744 8.78131 9.94725 5.09482 14.9111 5.09482C19.875 5.09482 23.9848 8.78131 24.671 13.5576H23.5504C23.223 13.5576 22.9091 13.6876 22.6777 13.9191C22.4462 14.1505 22.3162 14.4644 22.3162 14.7918V22.3733C22.3162 23.7346 21.2091 24.8417 19.8478 24.8417H17.3795V23.6075H12.4428V27.31H19.8478C22.5704 27.31 24.7845 25.0959 24.7845 22.3733C26.1458 22.3733 27.2529 21.3452 27.2529 20.0814V14.9682C27.2529 8.16298 21.7164 2.62646 14.9111 2.62646Z" fill="white"/>
</svg>
