<svg width="30" height="31" viewBox="0 0 30 31" fill="none" xmlns="http://www.w3.org/2000/svg">
<g clip-path="url(#clip0_855_1818)">
<path d="M17.82 27.8824L15 30.7024L12.18 27.8824C6.6375 26.6024 2.5 21.6324 2.5 15.7024C2.5 8.80239 8.1 3.20239 15 3.20239C21.9 3.20239 27.5 8.80239 27.5 15.7024C27.5 21.6324 23.3625 26.6024 17.82 27.8824ZM7.52875 19.9724C9.36375 22.7099 12.1187 24.4524 15.2 24.4524C18.28 24.4524 21.0362 22.7111 22.87 19.9724C20.7897 18.0281 18.0474 16.9484 15.2 16.9524C12.3521 16.9481 9.60939 18.0278 7.52875 19.9724ZM15 14.4524C15.9946 14.4524 16.9484 14.0573 17.6517 13.354C18.3549 12.6508 18.75 11.697 18.75 10.7024C18.75 9.70783 18.3549 8.754 17.6517 8.05074C16.9484 7.34748 15.9946 6.95239 15 6.95239C14.0054 6.95239 13.0516 7.34748 12.3483 8.05074C11.6451 8.754 11.25 9.70783 11.25 10.7024C11.25 11.697 11.6451 12.6508 12.3483 13.354C13.0516 14.0573 14.0054 14.4524 15 14.4524Z" fill="white"/>
</g>
<defs>
<clipPath id="clip0_855_1818">
<rect width="30" height="30" fill="white" transform="translate(0 0.702393)"/>
</clipPath>
</defs>
</svg>
