<svg width="26" height="27" viewBox="0 0 26 27" fill="none" xmlns="http://www.w3.org/2000/svg">
<g clip-path="url(#clip0_855_1841)">
<path d="M25.2047 1.22879C25.1293 1.04096 24.9844 0.889434 24.8001 0.805738C24.6158 0.722043 24.4063 0.712622 24.2152 0.779436C24.0242 0.84625 23.8662 0.984155 23.7742 1.16446C23.6823 1.34477 23.6633 1.55359 23.7214 1.74749C24.9291 5.21849 22.5319 7.81069 20.7041 9.19909L19.9657 8.14089C19.7174 7.78599 19.1623 7.49089 18.7307 7.48569L14.5863 7.50389C14.08 7.51918 13.5873 7.671 13.1602 7.94329L0.948006 16.5064C0.663949 16.7063 0.470671 17.0106 0.410489 17.3527C0.350307 17.6948 0.428126 18.0468 0.626906 18.3316L6.17661 26.272C6.59261 26.8635 7.25691 26.792 7.84971 26.3786L20.0619 17.8142C20.4129 17.5659 20.8185 17.0303 20.9615 16.6208L22.2589 12.5323C22.4019 12.1241 22.3148 11.5014 22.0665 11.1465L21.6167 10.5017C24.0711 8.62059 26.6191 5.29649 25.2047 1.22879ZM19.5224 13.3942C19.2974 13.5517 19.0436 13.6633 18.7755 13.7226C18.5074 13.782 18.2302 13.788 17.9597 13.7401C17.6893 13.6923 17.431 13.5917 17.1994 13.444C16.9679 13.2963 16.7678 13.1045 16.6104 12.8794C16.2918 12.4239 16.1669 11.8607 16.2632 11.3133C16.3595 10.7659 16.669 10.279 17.1239 9.95959C17.4805 9.70975 17.9063 9.57758 18.3416 9.58154C18.777 9.5855 19.2003 9.72541 19.5523 9.98169C19.1987 10.1949 18.9556 10.3197 18.9101 10.3392C18.749 10.416 18.6187 10.5453 18.5406 10.7059C18.4626 10.8665 18.4414 11.0488 18.4805 11.223C18.5196 11.3971 18.6168 11.5529 18.756 11.6646C18.8952 11.7764 19.0683 11.8376 19.2468 11.8381C19.3586 11.8381 19.473 11.8121 19.5809 11.7614C19.8331 11.6418 20.1035 11.5001 20.3856 11.3324C20.4505 11.7225 20.4039 12.123 20.2512 12.4877C20.0985 12.8525 19.8459 13.1667 19.5224 13.3942Z" fill="white"/>
</g>
<defs>
<clipPath id="clip0_855_1841">
<rect width="26" height="26" fill="white" transform="translate(0 0.702393)"/>
</clipPath>
</defs>
</svg>
