<svg width="35" height="22" viewBox="0 0 35 22" fill="none" xmlns="http://www.w3.org/2000/svg">
<g clip-path="url(#clip0_855_1893)">
<path d="M0.656738 2.76611C0.656738 1.2503 1.92792 0.0214844 3.49601 0.0214844H31.8887C33.4568 0.0214844 34.728 1.2503 34.728 2.76611V19.2339C34.728 20.7497 33.4568 21.9785 31.8887 21.9785H3.49601C1.92792 21.9785 0.656738 20.7497 0.656738 19.2339V2.76611Z" fill="#FCE0CF"/>
<path d="M20.9435 10.9854C20.946 10.3955 20.7172 9.80471 20.2568 9.35953C19.7953 8.91343 19.1826 8.69243 18.5711 8.69598C18.5682 8.69598 18.5654 8.6958 18.5623 8.6958C17.2344 8.6958 16.1812 9.71374 16.1812 10.9977C16.1812 12.2691 17.2474 13.2995 18.5623 13.2995C19.8906 13.2995 20.9438 12.2814 20.9438 10.9977C20.9438 10.9935 20.9435 10.9895 20.9435 10.9854Z" fill="#F26E21"/>
<path d="M15.7386 11.9721C15.3827 12.3165 15.0542 12.4511 14.7004 12.4584C13.8384 12.4509 13.2046 11.8338 13.2046 10.954C13.2046 10.5112 13.3781 10.1482 13.6529 9.83814C13.9106 9.60166 14.2426 9.44886 14.6243 9.44886C15.0364 9.44886 15.3571 9.58164 15.7232 9.93579V8.91766C15.3571 8.74068 15.0363 8.6521 14.6243 8.6521C14.0422 8.69232 13.4933 8.91969 13.0723 9.27671C12.951 9.38225 12.8347 9.49875 12.7361 9.63208C12.4285 10.0174 12.2427 10.4892 12.2427 10.9985C12.2427 12.282 13.2963 13.2559 14.6242 13.2559C14.6307 13.2559 14.6371 13.2554 14.6434 13.2553C14.6523 13.2554 14.6611 13.2559 14.67 13.2559C15.0363 13.2559 15.3571 13.1676 15.7692 12.9905L15.7386 11.9721C15.7231 11.987 15.7539 12.0009 15.7386 12.0151V11.9721Z" fill="#2B2B2B"/>
<path d="M23.9496 9.28646L22.9125 11.7512L21.7218 8.82935H20.7603L22.6377 13.3004H23.1414L25.1106 8.82935H24.1491L23.9496 9.28646Z" fill="#2B2B2B"/>
<path d="M25.478 10.7772V13.1678H27.951H27.9966V12.4593H27.2182H26.3939V11.6627V11.2644H27.951V10.5116H26.3939V9.58203H27.9966V8.82935H25.478V10.7772Z" fill="#2B2B2B"/>
<path d="M4.77858 8.83032H3.49609V13.1688H4.77851C5.46532 13.1688 5.96898 12.9916 6.38113 12.6817C6.88478 12.2833 7.20548 11.6637 7.20548 10.9998C7.20555 9.71566 6.2437 8.83032 4.77858 8.83032ZM5.83174 12.1064C5.55696 12.3276 5.1906 12.4603 4.64103 12.4603H4.36624V9.58294H4.59517C5.14475 9.58294 5.51111 9.67146 5.78596 9.93697C6.10647 10.2024 6.28974 10.6011 6.28974 10.9996C6.33553 11.398 6.15238 11.8405 5.83174 12.1064Z" fill="#2B2B2B"/>
<path d="M8.48776 8.8291H7.61768V13.1675H8.48776V8.8291Z" fill="#2B2B2B"/>
<path d="M10.6859 10.5121C10.1365 10.3351 9.99894 10.2022 9.99894 9.98093C9.99894 9.71531 10.2737 9.494 10.6401 9.494C10.9149 9.494 11.1438 9.58258 11.3728 9.84821L11.8309 9.27276C11.4644 8.96275 11.0066 8.78589 10.5028 8.78589C9.72415 8.78589 9.083 9.31714 9.083 10.0252C9.083 10.6451 9.35804 10.9107 10.1822 11.2205C10.5486 11.3531 10.686 11.3976 10.7778 11.4861C10.9606 11.5745 11.0524 11.7517 11.0524 11.9286C11.0524 12.2828 10.7778 12.5485 10.3654 12.5485C9.95283 12.5485 9.58679 12.3272 9.40358 11.973L8.854 12.5042C9.26634 13.0797 9.77006 13.3452 10.4112 13.3452C11.327 13.3452 11.9678 12.7698 11.9678 11.9286C11.968 11.1762 11.6934 10.8663 10.6859 10.5121Z" fill="#2B2B2B"/>
<path d="M30.47 11.3526C31.1567 11.22 31.5232 10.7771 31.5232 10.1133C31.5232 9.31658 30.9277 8.82935 29.9204 8.82935H28.5923V13.1678H29.4624V11.4412H29.5999L30.836 13.1678H31.8895L30.47 11.3526ZM29.737 10.8213H29.4624V9.49344H29.737C30.2866 9.49344 30.6073 9.71469 30.6073 10.1577C30.6073 10.6001 30.2867 10.8213 29.737 10.8213Z" fill="#2B2B2B"/>
</g>
<defs>
<clipPath id="clip0_855_1893">
<rect width="34.0712" height="21.957" fill="white" transform="translate(0.656738 0.0214844)"/>
</clipPath>
</defs>
</svg>
