<svg width="22" height="22" viewBox="0 0 22 22" fill="none" xmlns="http://www.w3.org/2000/svg">
<g opacity="0.5">
<path d="M18.816 2.50439H3.18404C2.80811 2.50439 2.50439 2.80811 2.50439 3.18404V18.816C2.50439 19.1919 2.80811 19.4956 3.18404 19.4956H18.816C19.1919 19.4956 19.4956 19.1919 19.4956 18.816V3.18404C19.4956 2.80811 19.1919 2.50439 18.816 2.50439ZM16.8535 7.46371H15.4963C14.4322 7.46371 14.2262 7.9692 14.2262 8.71257V10.3501H16.7664L16.4351 12.9137H14.2262V19.4956H11.5777V12.9158H9.36248V10.3501H11.5777V8.45983C11.5777 6.26583 12.9179 5.07007 14.8761 5.07007C15.8149 5.07007 16.6199 5.14016 16.8556 5.17202V7.46371H16.8535Z" fill="white"/>
</g>
</svg>
