<svg width="34" height="22" viewBox="0 0 34 22" fill="none" xmlns="http://www.w3.org/2000/svg">
<g clip-path="url(#clip0_855_1887)">
<path d="M0.342773 2.76611C0.342773 1.2503 1.58571 0.0214844 3.11895 0.0214844H30.8807C32.4139 0.0214844 33.6569 1.2503 33.6569 2.76611V19.2339C33.6569 20.7497 32.4139 21.9785 30.8807 21.9785H3.11895C1.58571 21.9785 0.342773 20.7497 0.342773 19.2339V2.76611Z" fill="#CCEFFF"/>
<path d="M20.6432 17.4758H13.3564V4.52905H20.6432V17.4758Z" fill="#6C6BBD"/>
<path d="M13.8233 11C13.8233 8.37369 15.0671 6.03424 17.004 4.5266C15.5876 3.42414 13.8 2.76612 11.8572 2.76612C7.258 2.76612 3.52979 6.4525 3.52979 11C3.52979 15.5475 7.258 19.2339 11.8572 19.2339C13.8 19.2339 15.5876 18.5759 17.004 17.4734C15.0671 15.9658 13.8233 13.6263 13.8233 11Z" fill="#EB001B"/>
<path d="M30.4704 11C30.4704 15.5475 26.7421 19.2339 22.1429 19.2339C20.2001 19.2339 18.4126 18.5759 16.9956 17.4734C18.9331 15.9658 20.1769 13.6263 20.1769 11C20.1769 8.37369 18.9331 6.03424 16.9956 4.5266C18.4126 3.42414 20.2001 2.76612 22.1429 2.76612C26.7421 2.76612 30.4704 6.4525 30.4704 11Z" fill="#0099DF"/>
</g>
<defs>
<clipPath id="clip0_855_1887">
<rect width="33.3141" height="21.957" fill="white" transform="translate(0.342773 0.0214844)"/>
</clipPath>
</defs>
</svg>
