<svg width="36" height="22" viewBox="0 0 36 22" fill="none" xmlns="http://www.w3.org/2000/svg">
<g clip-path="url(#clip0_855_1878)">
<path d="M0.95752 2.76611C0.95752 1.2503 2.2287 0.0214844 3.79679 0.0214844H32.1895C33.7576 0.0214844 35.0288 1.2503 35.0288 2.76611V19.2339C35.0288 20.7497 33.7576 21.9785 32.1895 21.9785H3.79679C2.2287 21.9785 0.95752 20.7497 0.95752 19.2339V2.76611Z" fill="#CCDEFF"/>
<path d="M8.60292 7.92412C8.24704 7.68763 7.78265 7.56909 7.20975 7.56909H4.99178C4.81615 7.56909 4.71912 7.654 4.70069 7.82365L3.7997 13.2908C3.79034 13.3445 3.80424 13.3936 3.84127 13.4383C3.87809 13.483 3.9244 13.5053 3.97987 13.5053H5.03339C5.21817 13.5053 5.31973 13.4206 5.33838 13.2507L5.58786 11.7768C5.59697 11.7053 5.62947 11.6472 5.68493 11.6025C5.74035 11.5579 5.80967 11.5287 5.89285 11.5153C5.97602 11.502 6.05445 11.4953 6.12852 11.4953C6.20237 11.4953 6.29012 11.4999 6.39194 11.5088C6.49351 11.5177 6.55825 11.522 6.586 11.522C7.38072 11.522 8.00451 11.3056 8.45742 10.8721C8.91011 10.439 9.13672 9.83825 9.13672 9.06978C9.13672 8.54272 8.95863 8.16087 8.60292 7.924V7.92412ZM7.45936 9.56575C7.41301 9.87848 7.29301 10.0838 7.09895 10.1821C6.90485 10.2806 6.62761 10.3296 6.26724 10.3296L5.80976 10.3429L6.04547 8.90906C6.06386 8.81088 6.1239 8.76173 6.22563 8.76173H6.4891C6.85858 8.76173 7.12675 8.81322 7.2931 8.91578C7.45936 9.01859 7.51483 9.2353 7.45936 9.56575Z" fill="#003087"/>
<path d="M32.0091 7.56909H30.9834C30.8815 7.56909 30.8215 7.61824 30.8031 7.71659L29.9021 13.2911L29.8882 13.3179C29.8882 13.3628 29.9067 13.405 29.9437 13.4452C29.9805 13.4854 30.0269 13.5055 30.0823 13.5055H30.9973C31.1726 13.5055 31.2697 13.4208 31.2885 13.2509L32.1895 7.7702V7.75689C32.1894 7.63176 32.1292 7.56926 32.0091 7.56926V7.56909Z" fill="#009CDE"/>
<path d="M19.6159 9.72787C19.6159 9.68331 19.5973 9.6408 19.5606 9.6007C19.5235 9.56052 19.4819 9.54028 19.4358 9.54028H18.3684C18.2666 9.54028 18.1834 9.58517 18.1188 9.67426L16.6495 11.7648L16.0395 9.75474C15.9931 9.61192 15.8916 9.54028 15.7346 9.54028H14.6947C14.6484 9.54028 14.6068 9.56044 14.5701 9.6007C14.533 9.6408 14.5146 9.68339 14.5146 9.72787C14.5146 9.74586 14.6048 10.0093 14.7849 10.5185C14.9651 11.0279 15.1592 11.5773 15.3671 12.1669C15.5751 12.7565 15.6836 13.0693 15.6929 13.1047C14.935 14.1054 14.5563 14.6414 14.5563 14.7128C14.5563 14.829 14.6162 14.887 14.7365 14.887H15.8038C15.9055 14.887 15.9886 14.8424 16.0534 14.7531L19.5884 9.82163C19.6067 9.80394 19.6159 9.77281 19.6159 9.72783V9.72787Z" fill="#003087"/>
<path d="M29.5565 9.53838H28.5029C28.3734 9.53838 28.2951 9.68583 28.2674 9.98069C28.0268 9.62345 27.5881 9.44458 26.9503 9.44458C26.285 9.44458 25.7188 9.68583 25.2523 10.1682C24.7855 10.6507 24.5522 11.2181 24.5522 11.8702C24.5522 12.3974 24.7116 12.8172 25.0304 13.1297C25.3492 13.4426 25.7766 13.5988 26.3128 13.5988C26.5808 13.5988 26.8534 13.5451 27.1306 13.438C27.4078 13.3308 27.6248 13.1879 27.7822 13.0092C27.7822 13.0181 27.7728 13.0582 27.7545 13.1296C27.7358 13.2012 27.7267 13.255 27.7267 13.2904C27.7267 13.4335 27.7866 13.5048 27.907 13.5048H28.8635C29.0389 13.5048 29.1407 13.4201 29.1683 13.2502L29.7367 9.75276C29.7459 9.6991 29.732 9.65007 29.6951 9.60534C29.658 9.56078 29.6119 9.53838 29.5565 9.53838ZM27.7475 12.1784C27.5118 12.4017 27.2276 12.5133 26.8949 12.5133C26.6268 12.5133 26.4098 12.442 26.2434 12.2989C26.077 12.1563 25.9938 11.9598 25.9938 11.7093C25.9938 11.379 26.1093 11.0996 26.3405 10.8718C26.5712 10.644 26.8579 10.5302 27.1999 10.5302C27.4584 10.5302 27.6733 10.6038 27.8445 10.7512C28.0153 10.8986 28.101 11.1019 28.101 11.361C28.1009 11.6826 27.9831 11.9551 27.7475 12.1784Z" fill="#009CDE"/>
<path d="M13.8086 9.53838H12.755C12.6254 9.53838 12.547 9.68583 12.5193 9.98069C12.2698 9.62345 11.8308 9.44458 11.2024 9.44458C10.537 9.44458 9.97084 9.68583 9.50421 10.1682C9.03745 10.6507 8.8042 11.2181 8.8042 11.8702C8.8042 12.3974 8.96364 12.8172 9.28248 13.1297C9.60133 13.4426 10.0286 13.5988 10.5647 13.5988C10.8234 13.5988 11.0915 13.5451 11.3687 13.438C11.6459 13.3308 11.8678 13.1879 12.0341 13.0092C11.997 13.1163 11.9786 13.2101 11.9786 13.2904C11.9786 13.4335 12.0387 13.5048 12.1588 13.5048H13.1153C13.2908 13.5048 13.3926 13.4201 13.4203 13.2502L13.9886 9.75276C13.9978 9.6991 13.9839 9.65007 13.9471 9.60534C13.9101 9.56078 13.8639 9.53838 13.8086 9.53838ZM11.9995 12.185C11.7638 12.4041 11.4749 12.5133 11.1332 12.5133C10.865 12.5133 10.6501 12.442 10.4885 12.2989C10.3267 12.1563 10.2459 11.9598 10.2459 11.7093C10.2459 11.379 10.3614 11.0996 10.5925 10.8718C10.8234 10.644 11.1099 10.5301 11.452 10.5301C11.7106 10.5301 11.9255 10.6038 12.0966 10.7512C12.2674 10.8986 12.353 11.1019 12.353 11.361C12.353 11.6916 12.2352 11.9663 11.9995 12.185Z" fill="#003087"/>
<path d="M24.3506 7.92412C23.9947 7.68763 23.5305 7.56909 22.9574 7.56909H20.7533C20.5684 7.56909 20.4667 7.654 20.4483 7.82365L19.5473 13.2908C19.5379 13.3445 19.5518 13.3936 19.5889 13.4383C19.6255 13.483 19.672 13.5053 19.7274 13.5053H20.8641C20.975 13.5053 21.0489 13.4473 21.0859 13.3311L21.3355 11.7768C21.3447 11.7053 21.377 11.6472 21.4325 11.6025C21.488 11.5579 21.5572 11.5287 21.6405 11.5153C21.7236 11.502 21.802 11.4953 21.8761 11.4953C21.95 11.4953 22.0377 11.4999 22.1394 11.5088C22.2411 11.5177 22.306 11.522 22.3335 11.522C23.1284 11.522 23.7521 11.3056 24.205 10.8721C24.6578 10.439 24.8842 9.83825 24.8842 9.06978C24.8843 8.54272 24.7063 8.16082 24.3506 7.924V7.92412ZM22.9297 10.1285C22.7264 10.2625 22.4213 10.3294 22.0148 10.3294L21.5712 10.3429L21.8068 8.90898C21.8251 8.81084 21.8852 8.76161 21.987 8.76161H22.2364C22.4398 8.76161 22.6015 8.77058 22.7218 8.7884C22.8417 8.80634 22.9574 8.86208 23.0683 8.95584C23.1793 9.04967 23.2347 9.18598 23.2347 9.36456C23.2347 9.73991 23.1329 9.99439 22.9297 10.1285Z" fill="#009CDE"/>
</g>
<defs>
<clipPath id="clip0_855_1878">
<rect width="34.0712" height="21.957" fill="white" transform="translate(0.95752 0.0214844)"/>
</clipPath>
</defs>
</svg>
