<svg width="34" height="22" viewBox="0 0 34 22" fill="none" xmlns="http://www.w3.org/2000/svg">
<g clip-path="url(#clip0_855_1870)">
<path d="M0.0288086 2.76611C0.0288086 1.2503 1.27174 0.0214844 2.80498 0.0214844H30.5667C32.1 0.0214844 33.3429 1.2503 33.3429 2.76611V19.2339C33.3429 20.7497 32.1 21.9785 30.5667 21.9785H2.80498C1.27174 21.9785 0.0288086 20.7497 0.0288086 19.2339V2.76611Z" fill="#D8E3F3"/>
<path d="M28.6997 6.9043H26.9544C26.4268 6.9043 26.0209 7.0648 25.7774 7.58644L22.4492 15.09H24.8033C24.8033 15.09 25.2092 14.0869 25.2903 13.8461C25.5339 13.8461 27.8473 13.8461 28.172 13.8461C28.2532 14.127 28.4561 15.0499 28.4561 15.0499H30.5667L28.6997 6.9043ZM25.9397 12.1608C26.1427 11.6793 26.8327 9.87363 26.8327 9.87363C26.8327 9.91376 27.0356 9.39212 27.1168 9.11123L27.2791 9.8335C27.2791 9.8335 27.7256 11.7997 27.8067 12.2009H25.9397V12.1608Z" fill="#3362AB"/>
<path d="M22.6111 12.4035C22.6111 14.0888 21.0688 15.2124 18.6741 15.2124C17.6594 15.2124 16.6854 15.0117 16.1577 14.771L16.4824 12.9252L16.7665 13.0456C17.4971 13.3666 17.9841 13.4869 18.8771 13.4869C19.5265 13.4869 20.2165 13.2462 20.2165 12.6844C20.2165 12.3233 19.9323 12.0825 19.0394 11.6813C18.1871 11.28 17.0506 10.638 17.0506 9.47434C17.0506 7.86929 18.6335 6.78589 20.8658 6.78589C21.7182 6.78589 22.4488 6.94639 22.8952 7.14702L22.5705 8.91257L22.4082 8.75207C22.0023 8.59156 21.4747 8.43106 20.7035 8.43106C19.8512 8.47119 19.4453 8.83232 19.4453 9.15333C19.4453 9.51446 19.9323 9.79535 20.7035 10.1565C22.0023 10.7584 22.6111 11.4405 22.6111 12.4035Z" fill="#3362AB"/>
<path d="M2.80469 6.98594L2.84527 6.82544H6.33579C6.82283 6.82544 7.18812 6.98594 7.30988 7.50758L8.08104 11.1189C7.30988 9.19288 5.52404 7.62796 2.80469 6.98594Z" fill="#F9B50B"/>
<path d="M12.9922 6.90585L9.46113 15.0515H7.06648L5.03711 8.23001C6.49825 9.15291 7.71587 10.5975 8.16233 11.6006L8.40586 12.4433L10.5976 6.86572H12.9922V6.90585Z" fill="#3362AB"/>
<path d="M13.9259 6.86572H16.1582L14.7377 15.0515H12.5054L13.9259 6.86572Z" fill="#3362AB"/>
</g>
<defs>
<clipPath id="clip0_855_1870">
<rect width="33.3141" height="21.957" fill="white" transform="translate(0.0288086 0.0214844)"/>
</clipPath>
</defs>
</svg>
