<svg width="50" height="50" viewBox="0 0 50 50" fill="none" xmlns="http://www.w3.org/2000/svg">
<path d="M0 25C0 11.1929 11.1929 0 25 0C38.8071 0 50 11.1929 50 25C50 38.8071 38.8071 50 25 50H0V25Z" fill="#0156FF"/>
<path d="M16.8939 18C16.3916 18 15.9099 18.1995 15.5547 18.5547C15.1995 18.9099 15 19.3916 15 19.8939V30.3106H16.8939C16.8939 31.0641 17.1932 31.7867 17.726 32.3194C18.2588 32.8522 18.9814 33.1515 19.7348 33.1515C20.4883 33.1515 21.2109 32.8522 21.7437 32.3194C22.2764 31.7867 22.5758 31.0641 22.5758 30.3106H28.2576C28.2576 31.0641 28.5569 31.7867 29.0897 32.3194C29.6224 32.8522 30.345 33.1515 31.0985 33.1515C31.8519 33.1515 32.5745 32.8522 33.1073 32.3194C33.6401 31.7867 33.9394 31.0641 33.9394 30.3106H35.8333V25.5758L32.9924 21.7879H30.1515V18H16.8939ZM30.1515 23.2083H32.5189L34.3845 25.5758H30.1515V23.2083ZM19.7348 28.8902C20.1116 28.8902 20.4729 29.0398 20.7393 29.3062C21.0056 29.5726 21.1553 29.9339 21.1553 30.3106C21.1553 30.6873 21.0056 31.0486 20.7393 31.315C20.4729 31.5814 20.1116 31.7311 19.7348 31.7311C19.3581 31.7311 18.9968 31.5814 18.7304 31.315C18.464 31.0486 18.3144 30.6873 18.3144 30.3106C18.3144 29.9339 18.464 29.5726 18.7304 29.3062C18.9968 29.0398 19.3581 28.8902 19.7348 28.8902ZM31.0985 28.8902C31.4752 28.8902 31.8365 29.0398 32.1029 29.3062C32.3693 29.5726 32.5189 29.9339 32.5189 30.3106C32.5189 30.6873 32.3693 31.0486 32.1029 31.315C31.8365 31.5814 31.4752 31.7311 31.0985 31.7311C30.7218 31.7311 30.3605 31.5814 30.0941 31.315C29.8277 31.0486 29.678 30.6873 29.678 30.3106C29.678 29.9339 29.8277 29.5726 30.0941 29.3062C30.3605 29.0398 30.7218 28.8902 31.0985 28.8902Z" fill="white"/>
</svg>
