<svg width="50" height="50" viewBox="0 0 50 50" fill="none" xmlns="http://www.w3.org/2000/svg">
<path d="M0 25C0 11.1929 11.1929 0 25 0C38.8071 0 50 11.1929 50 25C50 38.8071 38.8071 50 25 50H0V25Z" fill="#0156FF"/>
<path d="M23.8915 17.0905C24.2413 16.2922 25.3737 16.2922 25.7234 17.0905L27.6785 21.5526C27.8236 21.8838 28.1361 22.1108 28.4958 22.1464L33.3437 22.627C34.211 22.7129 34.5609 23.7899 33.9098 24.3692L30.2702 27.6075C30.0001 27.8478 29.8808 28.2151 29.958 28.5683L30.9991 33.3274C31.1853 34.1788 30.2692 34.8444 29.5171 34.4042L25.3126 31.9434C25.0006 31.7608 24.6143 31.7608 24.3023 31.9434L20.0978 34.4042C19.3457 34.8444 18.4296 34.1788 18.6158 33.3274L19.6569 28.5683C19.7342 28.2151 19.6148 27.8478 19.3447 27.6075L15.7051 24.3692C15.054 23.7899 15.4039 22.7129 16.2712 22.627L21.1191 22.1464C21.4789 22.1108 21.7914 21.8838 21.9364 21.5526L23.8915 17.0905Z" fill="white"/>
</svg>
